<svg id="Layer_1" xmlns="http://www.w3.org/2000/svg" viewBox="0 0 368.5 279.7"><style>.st0{fill:#fff}</style><path class="st0" d="M200.7 1.9l-.1 25.8h167.5V1.9H200.7m0 139.9l-.1 25.8h167.5v-25.8H200.7m0-93.2l-.1 25.7h167.5V48.6H200.7m0 46.6l-.1 25.7h167.5V95.2H200.7M0 38.7v128.9h25.7V82.7h21.4v84.9h25.2V82.7h20.9v84.9H119V82.7h20.9v84.9h26.4V38.7L83.2 0 0 38.7M8.2 204H0v-5.5h22.4v5.5h-8.2v21.5h-6V204zm21.4-5.4h5.9v10.7h11v-10.7h5.9v27h-5.9v-10.8h-11v10.8h-5.9v-27zm32 0H82v5.3H67.5v5.5h12.7v5.3H67.5v5.7h14.7v5.3H61.6v-27.1zm41.6 13.5c0-7.8 5.8-14 14.1-14 5.1 0 8.1 1.7 10.6 4.2l-3.8 4.4c-2.1-1.9-4.2-3.1-6.9-3.1-4.6 0-7.8 3.8-7.8 8.4v.1c0 4.6 3.2 8.5 7.8 8.5 3.1 0 5-1.2 7.1-3.2l3.8 3.8c-2.8 3-5.9 4.8-11.1 4.8-7.9 0-13.8-6.1-13.8-13.9zm32.4-13.5h5.9v21.6H155v5.4h-19.4v-27zm26.5 0h20.4v5.3H168v5.5h12.7v5.3H168v5.7h14.6v5.3H162l.1-27.1zm26.2 0h6.6l7.1 19 7.1-19h6.4l-10.9 27.2h-5.2l-11.1-27.2zm34 0h20.4v5.3h-14.5v5.5h12.7v5.3h-12.7v5.7h14.6v5.3h-20.6l.1-27.1zm28.5 0h5.9v21.6h13.5v5.4h-19.4v-27zm35.8-.2h5.5l11.6 27.2h-6.2l-2.5-6.1h-11.4l-2.5 6.1h-6l11.5-27.2zm6.3 15.8l-3.6-8.8-3.6 8.8h7.2zm17.6-15.6h5.5l12.6 16.6v-16.6h5.9v27h-5l-13.1-17.2v17.2h-5.9v-27zm33.2 0h10.5c8.5 0 14.3 5.8 14.3 13.4v.1c0 7.6-5.9 13.5-14.3 13.5h-10.5v-27zm10.5 21.6c4.9 0 8.1-3.3 8.1-8.1v-.1c0-4.8-3.3-8.1-8.1-8.1h-4.6v16.3h4.6zm-353 32.1h6.4l7.1 11.4 7.1-11.4h6.4v27h-5.9v-17.6l-7.6 11.5h-.1L7 261.8v17.5H1.2v-27zm35.3 15.4v-15.4h5.9v15.3c0 4.4 2.2 6.7 5.8 6.7s5.8-2.2 5.8-6.5v-15.5h6v15.2c0 8.2-4.6 12.2-11.8 12.2-7.2 0-11.7-4-11.7-12zm30.8 7.7l3.5-4.2c2.4 2 5 3.3 8.1 3.3 2.4 0 3.9-1 3.9-2.5v-.1c0-1.5-.9-2.3-5.4-3.4-5.4-1.4-8.9-2.9-8.9-8.2v-.1c0-4.9 3.9-8.1 9.4-8.1 3.9 0 7.3 1.2 10 3.4l-3.1 4.5c-2.4-1.7-4.7-2.7-7-2.7s-3.5 1-3.5 2.4v.1c0 1.8 1.2 2.4 5.8 3.5 5.5 1.4 8.6 3.4 8.6 8.1v.1c0 5.4-4.1 8.4-9.9 8.4-4.1-.2-8.2-1.7-11.5-4.5zm30-23.1h20.4v5.3h-14.5v5.5h12.7v5.3h-12.7v5.7h14.7v5.3H97.3v-27.1zm28.5 15.4v-15.4h5.9v15.3c0 4.4 2.2 6.7 5.8 6.7 3.6 0 5.8-2.2 5.8-6.5v-15.5h5.9v15.2c0 8.2-4.6 12.2-11.8 12.2-7.2 0-11.6-4-11.6-12zm32.1-15.4h6.4l7.1 11.4 7.1-11.4h6.4v27H179v-17.6l-7.6 11.5h-.1l-7.5-11.4v17.5H158l-.1-27zm48.8 13.6c0-7.8 6.1-14 14.4-14s14.3 6.2 14.3 13.9v.1c0 7.7-6.1 14-14.4 14-8.3-.2-14.3-6.4-14.3-14zm22.5 0c0-4.7-3.4-8.6-8.2-8.6s-8.1 3.8-8.1 8.4v.1c0 4.6 3.4 8.5 8.2 8.5 4.8 0 8.1-3.8 8.1-8.4zm14-13.6h20.6v5.4h-14.6v5.8H262v5.4h-12.9v10.5h-5.9v-27.1zm49.6-.2h5.5l11.6 27.2h-6.2l-2.5-6h-11.4l-2.5 6h-6l11.5-27.2zM299 268l-3.6-8.8-3.6 8.8h7.2zm17.3-15.7h12.3c3.4 0 6.1 1 7.9 2.7 1.5 1.5 2.3 3.6 2.3 6.2v.1c0 4.4-2.4 7.1-5.8 8.4l6.6 9.6h-6.9l-5.8-8.6h-4.7v8.6h-5.9v-27zm12 13.1c2.9 0 4.5-1.5 4.5-3.8v-.1c0-2.5-1.8-3.9-4.7-3.9h-5.9v7.8h6.1zm24.5-7.6h-8.2v-5.5H367v5.5h-8.2v21.5h-5.9v-21.5z"/></svg>